<?xml version="1.0" encoding="utf-8"?>
<!-- Generator: Adobe Illustrator 14.0.0, SVG Export Plug-In . SVG Version: 6.00 Build 43363)  -->
<!DOCTYPE svg PUBLIC "-//W3C//DTD SVG 1.1//EN" "http://www.w3.org/Graphics/SVG/1.1/DTD/svg11.dtd">
<svg version="1.1" id="Layer_1" xmlns="http://www.w3.org/2000/svg" xmlns:xlink="http://www.w3.org/1999/xlink" x="0px" y="0px"
	 width="423.364px" height="103.671px" viewBox="0 0 423.364 103.671" enable-background="new 0 0 423.364 103.671"
	 xml:space="preserve">
<g>
	<path fill="#FFFFFF" d="M151.782,46.413l-5.516-0.034l-5.043,14.162l-3.369-0.021l5.045-14.161l-5.541-0.034l1.035-2.909
		l14.427,0.087L151.782,46.413z"/>
	<path fill="#FFFFFF" d="M160.654,50.827c-0.998,0.01-1.951,0.193-2.861,0.549c-0.908,0.356-1.664,0.894-2.262,1.614l-2.715,7.621
		l-3.271-0.02l4.487-12.599l3.002,0.019l-0.959,2.692c0.748-0.863,1.568-1.557,2.465-2.082c0.898-0.524,1.736-0.785,2.518-0.78
		c0.179,0.001,0.311,0.006,0.397,0.015s0.168,0.021,0.244,0.038L160.654,50.827z"/>
	<path fill="#FFFFFF" d="M163.201,60.914c-0.619-0.004-1.161-0.107-1.627-0.312c-0.466-0.202-0.829-0.487-1.092-0.85
		c-0.261-0.363-0.418-0.785-0.466-1.268s0.03-1.012,0.237-1.589c0.21-0.593,0.541-1.142,0.989-1.645
		c0.449-0.504,0.976-0.93,1.581-1.279c0.604-0.35,1.278-0.623,2.016-0.819c0.738-0.196,1.506-0.292,2.304-0.287
		c0.57,0.003,1.11,0.055,1.619,0.153c0.514,0.101,0.947,0.239,1.309,0.418l0.256-0.721c0.297-0.833,0.285-1.477-0.034-1.928
		c-0.319-0.452-0.952-0.681-1.896-0.687c-0.683-0.004-1.394,0.113-2.129,0.349c-0.736,0.236-1.529,0.585-2.379,1.045l-0.272-2.049
		c2.025-1.064,3.992-1.591,5.895-1.579c1.84,0.011,3.108,0.464,3.808,1.36c0.702,0.896,0.75,2.186,0.151,3.869l-1.396,3.918
		c-0.12,0.337-0.142,0.578-0.062,0.723c0.078,0.145,0.277,0.227,0.598,0.244l-0.977,2.742c-0.332,0.061-0.637,0.104-0.914,0.127
		c-0.277,0.021-0.514,0.032-0.709,0.031c-0.612-0.02-1.035-0.162-1.265-0.43c-0.231-0.266-0.308-0.624-0.229-1.072l0.176-0.698
		c-0.833,0.733-1.725,1.29-2.675,1.67C165.066,60.732,164.129,60.92,163.201,60.914z M164.968,58.563
		c0.553,0.003,1.112-0.089,1.678-0.279c0.562-0.188,1.041-0.443,1.433-0.763c0.454-0.27,0.743-0.574,0.862-0.91l0.514-1.442
		c-0.338-0.146-0.723-0.265-1.145-0.356c-0.424-0.091-0.85-0.139-1.271-0.141c-0.845-0.005-1.604,0.18-2.275,0.553
		s-1.11,0.849-1.315,1.426c-0.194,0.545-0.143,1,0.15,1.363C163.893,58.376,164.348,58.56,164.968,58.563z"/>
	<path fill="#FFFFFF" d="M186.741,60.814l-3.271-0.02l2.518-7.068c0.361-1.01,0.445-1.748,0.252-2.215
		c-0.192-0.467-0.605-0.703-1.239-0.706c-0.326-0.002-0.683,0.06-1.069,0.186c-0.389,0.126-0.773,0.305-1.158,0.535
		c-0.383,0.231-0.754,0.506-1.113,0.824c-0.358,0.319-0.662,0.671-0.913,1.056l-2.621,7.356l-3.271-0.02l4.488-12.599l2.953,0.018
		l-0.83,2.332c0.758-0.799,1.662-1.419,2.717-1.863c1.055-0.443,2.145-0.662,3.267-0.655c0.799,0.005,1.396,0.153,1.799,0.444
		c0.402,0.292,0.658,0.671,0.77,1.138c0.11,0.467,0.113,0.997,0.008,1.59c-0.105,0.594-0.268,1.195-0.484,1.805L186.741,60.814z"/>
	<path fill="#FFFFFF" d="M195.49,61.109c-0.52-0.004-1.048-0.047-1.58-0.131c-0.531-0.084-1.043-0.199-1.527-0.347
		c-0.486-0.147-0.936-0.327-1.35-0.538s-0.762-0.446-1.047-0.705l2.099-2.18c1.257,1.052,2.642,1.582,4.154,1.591
		c0.684,0.005,1.265-0.112,1.739-0.351c0.476-0.238,0.794-0.581,0.955-1.03c0.158-0.449,0.047-0.783-0.342-1.003
		c-0.385-0.219-1.079-0.459-2.078-0.723c-0.76-0.197-1.397-0.402-1.908-0.613c-0.513-0.213-0.898-0.456-1.158-0.73
		c-0.262-0.274-0.41-0.589-0.447-0.941c-0.039-0.354,0.029-0.771,0.2-1.253c0.229-0.641,0.563-1.217,1.008-1.729
		c0.442-0.511,0.96-0.946,1.553-1.304c0.592-0.358,1.235-0.631,1.931-0.82c0.694-0.188,1.408-0.28,2.142-0.276
		c0.91,0.005,1.767,0.151,2.57,0.437c0.804,0.287,1.509,0.672,2.12,1.158l-2.053,1.987c-0.559-0.453-1.115-0.782-1.68-0.985
		c-0.563-0.205-1.162-0.309-1.797-0.312c-0.586-0.003-1.118,0.106-1.596,0.328c-0.479,0.222-0.809,0.582-0.984,1.079
		c-0.152,0.433-0.074,0.746,0.24,0.941c0.313,0.195,0.916,0.415,1.806,0.662c0.833,0.23,1.53,0.459,2.093,0.687
		c0.562,0.229,1,0.488,1.312,0.778c0.312,0.292,0.494,0.626,0.547,1.004c0.053,0.379-0.015,0.832-0.202,1.359
		c-0.217,0.609-0.542,1.162-0.969,1.658c-0.43,0.495-0.934,0.914-1.513,1.256c-0.578,0.342-1.229,0.603-1.956,0.783
		C197.049,61.025,196.287,61.113,195.49,61.109z"/>
	<path fill="#FFFFFF" d="M211.452,61.205c-0.991-0.006-1.784-0.232-2.376-0.678c-0.592-0.444-0.964-1.045-1.119-1.801l-2.612,7.333
		l-3.271-0.021l6.312-17.72l2.856,0.018l-0.772,2.164c0.735-0.734,1.552-1.312,2.451-1.732c0.901-0.42,1.839-0.628,2.815-0.623
		c0.862,0.006,1.597,0.183,2.207,0.532c0.61,0.35,1.074,0.818,1.396,1.406c0.318,0.588,0.488,1.28,0.508,2.075
		c0.017,0.796-0.131,1.634-0.444,2.515c-0.326,0.915-0.771,1.771-1.331,2.57c-0.562,0.801-1.197,1.496-1.905,2.086
		c-0.707,0.59-1.466,1.051-2.278,1.383C213.079,61.046,212.267,61.209,211.452,61.205z M211.354,58.457
		c0.488,0.004,0.977-0.098,1.467-0.303c0.488-0.207,0.942-0.485,1.361-0.836c0.418-0.351,0.791-0.758,1.12-1.223
		c0.327-0.464,0.581-0.944,0.758-1.441c0.188-0.528,0.273-1.022,0.258-1.479c-0.016-0.458-0.122-0.856-0.319-1.195
		c-0.197-0.338-0.478-0.605-0.841-0.8c-0.363-0.194-0.797-0.293-1.3-0.297c-0.309-0.002-0.646,0.049-1.008,0.151
		c-0.363,0.103-0.718,0.248-1.062,0.439c-0.345,0.191-0.672,0.414-0.984,0.669c-0.311,0.255-0.578,0.534-0.8,0.838l-1.053,2.958
		c0.037,0.723,0.27,1.322,0.703,1.799S210.654,58.453,211.354,58.457z"/>
	<path fill="#FFFFFF" d="M226.146,61.293c-1.041-0.006-1.913-0.188-2.618-0.545s-1.237-0.839-1.601-1.443
		c-0.365-0.605-0.562-1.301-0.591-2.088c-0.029-0.787,0.11-1.614,0.418-2.48c0.313-0.881,0.766-1.713,1.356-2.496
		c0.586-0.784,1.277-1.475,2.069-2.072s1.665-1.07,2.62-1.418s1.953-0.518,2.996-0.512c1.042,0.006,1.91,0.189,2.607,0.546
		c0.694,0.357,1.225,0.839,1.587,1.444c0.363,0.604,0.561,1.3,0.591,2.087c0.029,0.788-0.113,1.623-0.428,2.504
		c-0.308,0.865-0.758,1.689-1.346,2.474c-0.59,0.784-1.275,1.474-2.059,2.071c-0.784,0.598-1.654,1.07-2.609,1.419
		C228.185,61.129,227.187,61.301,226.146,61.293z M225.122,54.758c-0.2,0.561-0.295,1.07-0.287,1.528s0.103,0.855,0.283,1.194
		c0.182,0.338,0.442,0.602,0.784,0.787c0.341,0.188,0.747,0.282,1.219,0.285c0.474,0.002,0.944-0.086,1.417-0.269
		c0.472-0.182,0.919-0.44,1.34-0.774c0.421-0.336,0.8-0.735,1.137-1.199c0.336-0.463,0.604-0.975,0.805-1.537
		c0.193-0.544,0.289-1.051,0.281-1.516c-0.005-0.467-0.098-0.868-0.278-1.207c-0.182-0.337-0.442-0.601-0.784-0.788
		c-0.34-0.186-0.747-0.281-1.219-0.284c-0.473-0.003-0.945,0.091-1.422,0.28c-0.475,0.19-0.922,0.452-1.343,0.787
		c-0.421,0.335-0.8,0.735-1.138,1.198C225.582,53.709,225.316,54.213,225.122,54.758z"/>
	<path fill="#FFFFFF" d="M247.152,51.348c-0.997,0.011-1.952,0.193-2.862,0.549c-0.908,0.356-1.664,0.894-2.262,1.613l-2.716,7.621
		l-3.269-0.02l4.486-12.599l3.004,0.018l-0.961,2.693c0.749-0.863,1.569-1.557,2.465-2.082c0.896-0.524,1.735-0.784,2.518-0.779
		c0.179,0.001,0.311,0.005,0.396,0.015c0.087,0.008,0.169,0.021,0.244,0.038L247.152,51.348z"/>
	<path fill="#FFFFFF" d="M254.383,60.572c-0.506,0.189-1.116,0.379-1.829,0.568c-0.71,0.188-1.415,0.279-2.117,0.275
		c-0.453-0.003-0.86-0.062-1.219-0.176c-0.359-0.114-0.645-0.297-0.857-0.548c-0.213-0.25-0.338-0.571-0.377-0.966
		c-0.041-0.394,0.041-0.871,0.242-1.433l2.578-7.236l-1.662-0.011l0.882-2.477l1.66,0.011l1.455-4.088l3.272,0.021l-1.455,4.087
		l2.707,0.017l-0.882,2.476l-2.709-0.016l-2.192,6.155c-0.159,0.449-0.151,0.766,0.029,0.952c0.177,0.186,0.438,0.279,0.778,0.281
		c0.343,0.002,0.695-0.052,1.062-0.162c0.365-0.11,0.659-0.204,0.884-0.284L254.383,60.572z"/>
	<path fill="#FFFFFF" d="M260.193,61.499c-0.62-0.004-1.16-0.108-1.625-0.312c-0.468-0.203-0.832-0.486-1.095-0.85
		c-0.261-0.363-0.416-0.785-0.465-1.268c-0.048-0.482,0.031-1.012,0.236-1.59c0.211-0.592,0.541-1.141,0.989-1.644
		c0.449-0.504,0.977-0.93,1.581-1.279c0.605-0.351,1.276-0.622,2.016-0.819c0.738-0.197,1.507-0.292,2.304-0.287
		c0.569,0.002,1.11,0.055,1.621,0.154c0.51,0.1,0.945,0.238,1.306,0.417l0.258-0.722c0.297-0.832,0.286-1.476-0.034-1.927
		c-0.321-0.452-0.951-0.681-1.897-0.687c-0.682-0.004-1.392,0.113-2.128,0.349c-0.735,0.237-1.529,0.585-2.379,1.046l-0.273-2.05
		c2.025-1.064,3.991-1.59,5.896-1.579c1.839,0.011,3.107,0.464,3.808,1.36c0.699,0.896,0.75,2.185,0.149,3.868l-1.395,3.919
		c-0.121,0.337-0.142,0.578-0.062,0.723c0.079,0.146,0.278,0.227,0.599,0.245l-0.978,2.74c-0.331,0.062-0.637,0.104-0.913,0.127
		s-0.513,0.033-0.708,0.031c-0.613-0.02-1.034-0.162-1.268-0.428c-0.231-0.268-0.304-0.625-0.229-1.074l0.177-0.697
		c-0.831,0.734-1.722,1.291-2.673,1.67C262.058,61.317,261.12,61.504,260.193,61.499z M261.959,59.148
		c0.553,0.003,1.111-0.09,1.677-0.279s1.042-0.443,1.434-0.763c0.453-0.271,0.742-0.573,0.862-0.909l0.514-1.443
		c-0.339-0.146-0.721-0.266-1.145-0.355c-0.424-0.092-0.848-0.139-1.271-0.142c-0.848-0.005-1.605,0.18-2.276,0.553
		c-0.671,0.374-1.11,0.849-1.315,1.427c-0.194,0.544-0.145,0.998,0.152,1.361C260.884,58.961,261.342,59.145,261.959,59.148z"/>
	<path fill="#FFFFFF" d="M279.545,60.725c-0.505,0.189-1.116,0.379-1.826,0.566c-0.713,0.188-1.416,0.281-2.115,0.276
		c-0.457-0.002-0.865-0.062-1.223-0.176c-0.359-0.114-0.646-0.296-0.856-0.548c-0.215-0.25-0.339-0.57-0.378-0.965
		c-0.04-0.395,0.042-0.872,0.241-1.434l2.579-7.236l-1.661-0.01l0.882-2.477l1.661,0.01l1.456-4.087l3.271,0.02l-1.457,4.087
		l2.71,0.016l-0.884,2.477l-2.708-0.017l-2.191,6.155c-0.162,0.449-0.152,0.767,0.026,0.952s0.438,0.279,0.779,0.281
		s0.696-0.051,1.062-0.162c0.365-0.109,0.66-0.204,0.884-0.283L279.545,60.725z"/>
	<path fill="#FFFFFF" d="M287.04,47.035l1.137-3.198l3.273,0.021l-1.14,3.197L287.04,47.035z M281.926,61.389l4.488-12.599
		l3.272,0.02l-4.488,12.598L281.926,61.389z"/>
	<path fill="#FFFFFF" d="M294.922,61.708c-1.041-0.006-1.914-0.188-2.617-0.546s-1.236-0.839-1.603-1.443
		c-0.362-0.604-0.56-1.3-0.589-2.088c-0.029-0.786,0.11-1.613,0.42-2.479c0.313-0.882,0.767-1.714,1.354-2.498
		c0.589-0.783,1.28-1.474,2.07-2.072c0.792-0.598,1.667-1.07,2.622-1.418c0.956-0.347,1.953-0.518,2.994-0.512
		c1.043,0.006,1.911,0.188,2.607,0.546c0.695,0.357,1.226,0.838,1.589,1.443c0.361,0.605,0.559,1.301,0.59,2.088
		c0.029,0.788-0.113,1.622-0.427,2.503c-0.31,0.866-0.758,1.691-1.347,2.475c-0.59,0.783-1.275,1.475-2.06,2.071
		c-0.782,0.598-1.65,1.071-2.607,1.418C296.962,61.544,295.965,61.715,294.922,61.708z M293.899,55.172
		c-0.198,0.562-0.293,1.07-0.287,1.529c0.01,0.458,0.103,0.855,0.286,1.194c0.18,0.338,0.44,0.601,0.782,0.788
		c0.341,0.187,0.747,0.281,1.22,0.283c0.471,0.004,0.943-0.086,1.416-0.268c0.472-0.182,0.918-0.441,1.34-0.775
		c0.42-0.334,0.8-0.734,1.134-1.198c0.339-0.464,0.606-0.976,0.808-1.537c0.193-0.544,0.287-1.05,0.28-1.517
		c-0.004-0.465-0.097-0.867-0.277-1.205c-0.182-0.34-0.443-0.602-0.784-0.789c-0.34-0.186-0.747-0.281-1.219-0.284
		c-0.473-0.002-0.944,0.091-1.421,0.281c-0.476,0.189-0.924,0.452-1.344,0.787c-0.422,0.336-0.801,0.734-1.137,1.198
		C294.359,54.123,294.094,54.627,293.899,55.172z"/>
	<path fill="#FFFFFF" d="M316.706,61.6l-3.271-0.021l2.519-7.069c0.358-1.01,0.442-1.747,0.25-2.215
		c-0.192-0.467-0.604-0.702-1.239-0.706c-0.326-0.002-0.684,0.061-1.071,0.187c-0.387,0.126-0.771,0.305-1.154,0.535
		c-0.385,0.23-0.756,0.506-1.113,0.824c-0.36,0.319-0.663,0.671-0.913,1.055l-2.623,7.357l-3.27-0.02l4.487-12.599l2.953,0.018
		l-0.83,2.332c0.756-0.798,1.661-1.419,2.719-1.862c1.053-0.443,2.144-0.663,3.265-0.655c0.798,0.004,1.399,0.152,1.799,0.444
		c0.4,0.292,0.658,0.671,0.769,1.137c0.11,0.467,0.114,0.997,0.008,1.591c-0.104,0.593-0.266,1.195-0.483,1.804L316.706,61.6z"/>
</g>
<g>
	<rect x="71.3" y="33.176" fill="#50AFF3" width="347.638" height="35.415"/>
	<path fill="#FF2B3B" d="M68.592,101.768H33.177V68.591H0V33.176h33.175L33.177,0h35.415v33.176h47.816L91.387,68.591H68.592
		V101.768z"/>
	<polygon fill="#FFFFFF" points="95.894,68.712 85.33,68.712 114.27,32.259 125.63,32.259 	"/>
</g>
</svg>
